<?xml version="1.0" standalone="no"?>
<!DOCTYPE svg PUBLIC "-//W3C//DTD SVG 1.1//EN" "http://www.w3.org/Graphics/SVG/1.1/DTD/svg11.dtd" >
<svg xmlns="http://www.w3.org/2000/svg">
<metadata></metadata>
<defs>
<font id="picararegular" horiz-adv-x="250" >
<font-face units-per-em="500" ascent="400" descent="-100" />
<missing-glyph horiz-adv-x="500" />
<glyph unicode="&#xe000;" d="M0 0z" />
<glyph unicode="&#xf000;" d="M0 118l42 42l94 -92l-42 -42zM52 68l156 156l42 -42l-156 -156z" />
<glyph unicode="&#xf001;" d="M15 58l43 -44l177 180l-43 42zM16 194l177 -176l41 41l-177 177z" />
<glyph unicode="&#xf002;" d="M10 95h230v61h-230v-61zM94 10h62v230h-62v-230z" />
<glyph unicode="&#xf003;" d="M7.5 28q0.5 -17 0.5 -22q0 31 9 50.5t27 28t33.5 11t38.5 2.5h50v-42l78 82l-78 76v-36h-50q-20 0 -36 -3.5t-27 -11.5t-19.5 -15.5t-13 -21t-7.5 -23t-4 -26t-1.5 -24.5t0 -25z" />
<glyph unicode="&#xf004;" d="M5 139l78 75v-35h51q22 0 39.5 -5.5t28.5 -12.5t19 -21t12 -24t5.5 -29t2 -28t0 -28.5t-0.5 -24.5q0 31 -9 50.5t-26 28t-32.5 11t-38.5 2.5h-51v-42z" />
<glyph unicode="&#xf005;" d="M16 128q0 44 32.5 75t79.5 31q42 0 74 -31.5t32 -74.5q0 -47 -31.5 -79.5t-74.5 -32.5q-47 0 -79.5 32.5t-32.5 79.5zM68 164q0 -14 17.5 -14t17.5 14q0 2 1 5.5t6.5 9t15.5 5.5q14 0 19 -14t-5 -21q-6 -4 -10.5 -8t-7.5 -7.5t-5 -5t-2.5 -5.5t-0.5 -5v-6v-6q0 -5 13 -5 t13 5q0 14 18 24q24 15 24 36q0 49 -58 49q-24 0 -40 -14t-16 -37zM106 65q0 -21 22 -21q21 0 21 21t-21 21q-22 0 -22 -21z" />
<glyph unicode="&#xf006;" d="M10 112q-11 9 0 26l102 100q4 6 12 6t12 -6l102 -100q11 -17 0 -26l-102 -102q-4 -4 -12 -4t-12 4zM100 166q0 -20 7.5 -42.5t17.5 -22.5t17.5 22.5t7.5 42.5q0 16 -1 22.5t-6.5 12.5t-17.5 6q-17 0 -21 -9.5t-4 -31.5zM102 65q0 -22 23 -22q9 0 16 6.5t7 15.5t-7 15.5 t-16 6.5q-23 0 -23 -22z" />
<glyph unicode="&#xf007;" d="M4 8l26 68l51 -51zM42 90l109 110l51 -50l-108 -110zM158 208l10 10l52 -51l-10 -10zM181 231q8 7 13 11q11 9 38 -14q9 -10 12.5 -19t1.5 -13l-1 -4l-13 -12z" />
<glyph unicode="&#xf008;" d="M13 30v48h224v-48h-224zM13 102v46h224v-46h-224zM13 173v47h224v-47h-224z" />
<glyph unicode="&#xf009;" d="M25 24v85h85v-85h-85zM25 140v86h85v-86h-85zM140 24v85h85v-85h-85zM140 140v86h85v-86h-85z" />
<glyph unicode="&#xf00a;" d="M16 124q0 45 31.5 77.5t76.5 32.5t77.5 -32.5t32.5 -77.5t-32.5 -76.5t-77.5 -31.5t-76.5 31.5t-31.5 76.5zM52 125q0 -19 8 -35l100 99q-15 9 -35 9q-30 0 -51.5 -21t-21.5 -52zM90 60q13 -8 34 -8q30 0 52 21t22 51q0 19 -10 36z" />
<glyph unicode="&#xf00b;" d="M25 25v99l33 -32l38 38l34 -34l-38 -38l32 -33h-99zM120 153l38 39l-32 33h99v-99l-33 32l-38 -39z" />
<glyph unicode="&#xf00c;" d="M25 126v99h99l-32 -33l38 -38l-34 -34l-38 38zM119 96l34 34l39 -38l33 32v-99h-99l32 33z" />
<glyph unicode="&#xf00d;" d="M25 25v79l26 -26l31 32l27 -28l-30 -31l25 -26h-79zM25 146v79h79l-26 -25l32 -32l-28 -27l-31 30zM140 82l28 27l32 -30l25 26v-79l-79 -1l26 26zM141 168l30 32l-25 25h79v-79l-25 26l-32 -32z" />
<glyph unicode="&#xf00e;" d="M56 52q17 -17 54 -17v-30h40v33q44 9 44 53q0 21 -14 33t-31 14t-31 6t-14 12q0 18 25.5 18.5t45.5 -14.5l17 33q-19 14 -38 14v38h-40v-38q-25 0 -40 -14t-15 -36q0 -24 21.5 -35t43.5 -16t22 -16t-14 -13.5t-31.5 2.5t-28.5 15z" />
<glyph unicode="&#xf100;" d="M0 38h10l78 88l37 -31l37 31l78 -88h10v10l-74 87l74 68v10h-10l-115 -83l-115 83h-10v-10l74 -68l-74 -87v-10zM0 38v175h250v-175h-250z" />
<glyph unicode="&#xf101;" d="M0 56v60h70l30 -33h50l30 33h70v-60q0 -12 -8 -20t-18 -8h-198q-10 0 -18 8t-8 20zM0 130l43 88h168l39 -88h-25l-25 55h-150l-25 -55h-25z" />
<glyph unicode="&#xf102;" d="M0 145l250 87l-88 -212l-56 57l-43 -41v83zM77 64l151 145q4 4 -1 5q-3 0 -7 -2l-143 -90v-58z" />
<glyph unicode="&#xf103;" d="M22 209q1 4 5 9t29.5 14t67.5 9t68 -8t31 -16l5 -8l-36 -179q0 -3 -2.5 -6.5t-19.5 -10t-45 -6.5t-44.5 5.5t-19.5 11.5l-3 6zM48 200q2 -20 78 -20q74 0 76 20q1 9 -21 15.5t-55 6.5t-56 -6.5t-22 -15.5zM68 162l17 -135l15 -3l-16 136zM118 21h15v135h-15v-135zM150 24 l16 6l17 132l-16 -2z" />
<glyph unicode="&#xf104;" d="M5 48v138q0 8 9 8h194q8 0 8 -8v-6h-188q-8 0 -8 -9v-117q0 -9 8 -9h23v-15h-29q-17 0 -17 18zM30 194v20q0 7 9 7h75q8 0 8 -7v-20h-92zM42 38v114q0 8 8 8h188q7 0 7 -8v-114q0 -8 -7 -8h-187q-9 0 -9 8z" />
<glyph unicode="&#xf105;" d="M40 186q36 -26 44.5 -49t2 -40.5t-4.5 -21.5q12 -24 37 -12q18 10 15 24q-1 4 -4 7q-18 19 -21 41.5t6 40.5t20 33.5t21 24.5l10 8q-2 -3 -5.5 -9t-9.5 -22.5t-7 -31.5t7 -31.5t27 -27.5q53 -30 33.5 -68t-86.5 -49q-56 17 -73 40t-6 55q1 1 3.5 8t3.5 9t3 9t2 10.5 t-0.5 10.5t-2.5 12.5t-6 13t-9 15.5zM62 249q3 -1 8 -4t15.5 -11.5t15.5 -17.5t1.5 -23t-20.5 -28q-3 10 -4.5 38.5t-15.5 45.5zM171 191q1 9 5 14.5t12.5 11t12.5 9.5q-19 -50 -12 -78q2 -10 4 -16q-30 23 -22 59z" />
<glyph unicode="&#xf106;" d="M20 106q5 8 15 19t37.5 30t53.5 19t52 -17t39 -34l13 -17q-5 -8 -14.5 -19t-36.5 -30t-53 -19t-52.5 17t-39.5 34zM20 142q5 8 15 20t37.5 32t53.5 20t52 -18t39 -36l13 -18q-5 6 -14.5 14.5t-36.5 23t-53 14.5t-52.5 -13t-39.5 -26zM70 106q0 -22 17.5 -39t38.5 -17 t37.5 17t16.5 39q0 21 -16.5 38.5t-37.5 17.5t-38.5 -17.5t-17.5 -38.5zM95 106q0 12 9.5 21t21.5 9t20 -9t8 -21q0 -13 -8 -21t-20 -8t-21.5 8.5t-9.5 20.5zM100 114q0 -7 5 -11.5t11 -4.5q16 0 16 16t-16 16t-16 -16z" />
<glyph unicode="&#xf107;" d="M0 79l44 53l14 -6zM16 178q50 -36 110 -36q28 -1 55.5 8t40.5 18l14 10q-6 -6 -16 -14t-38.5 -22t-55.5 -14t-54.5 12.5t-41.5 25.5zM24 152q45 -44 101 -44q25 -1 50 10t37 22l13 12q-5 -8 -14 -19t-35.5 -29.5t-50.5 -18.5q-25 0 -50 16.5t-38 33.5zM52 41l30 69l13 -8 zM117 98h15l-7 -75zM154 102l14 8l30 -69zM192 126l14 6l44 -53z" />
<glyph unicode="&#xf108;" d="M45 9v115h160v-115h-160zM56 124v48q0 33 17.5 51.5t50.5 18.5t51 -18.5t18 -51.5v-48h-36v48q0 35 -33 35q-32 0 -32 -35v-48h-36zM74 39h102v18h-102v-18zM74 66h102v18h-102v-18z" />
<glyph unicode="&#xf109;" d="M45 8v114h160v-114h-160zM69.5 206.5q-3.5 8.5 2.5 15.5q17 20 53 20q33 0 50.5 -18.5t17.5 -51.5v-50h-36v50q0 35 -32 35q-17 0 -25 -8q-7 -8 -17 -4.5t-13.5 12zM74 39h102v18h-102v-18zM74 66h102v18h-102v-18z" />
<glyph unicode="&#xf10a;" d="M18 18q-19 18 0 37l60 59l33 -4l4 -32l-59 -60q-19 -19 -38 0zM80 163q0 34 24 58t59 24q34 0 58 -24t24 -58t-24 -58.5t-58 -24.5q-35 0 -59 24t-24 59zM104 163q0 -24 17.5 -41t41.5 -17t40.5 17t16.5 41t-16.5 40.5t-40.5 16.5t-41.5 -16.5t-17.5 -40.5z" />
<glyph unicode="&#xf200;" d="M0 31v15q0 25 25 39t59 14q40 -59 81 0q34 0 59.5 -13.5t25.5 -39.5v-14q-90 -12 -126 -12zM70 177q-3 23 13.5 40t40.5 17q25 0 42 -17t13 -40q-5 -30 -22.5 -55.5t-32.5 -25.5t-33 28t-21 53z" />
<glyph unicode="&#xf201;" d="M7 20l51 83l47 -32zM12 138q0 33 33 55.5t80 22.5q46 0 79 -22.5t33 -55.5q0 -32 -33.5 -56t-78.5 -24q-46 0 -79.5 24t-33.5 56z" />
<glyph unicode="&#xf202;" d="M8 151l43 1l3 -102l-36 -2zM74 64l4 82q24 9 46 24q38 24 42 34q2 4 3 10.5t3 10.5t6 7t9.5 -2t8.5 -15t2 -21q-1 -9 -7 -19t-11.5 -16t-4.5 -8q1 -4 23 -9l23 -4q4 -1 11.5 -9.5t5.5 -16.5l-4 -12q2 -10 -2 -20l-8 -16q2 -12 -6 -22q-4 -4 -8 -6.5t-6 -3.5h-2 q0 -6 -10 -14q-8 -4 -33 1t-37 11z" />
<glyph unicode="&#xf203;" d="M11 140l5 11q-2 11 2 19l10 14q-2 10 7 20l15 8q0 7 10 13q7 4 30 -2t35 -13l51 -28l-4 -77q-47 -19 -58 -25q-29 -18 -36 -32q-12 -21 -18 -24q-4 -2 -8 3t-6 15t-2 20q1 9 7 18.5t10.5 15t2.5 6.5q-2 2 -20 6t-19 5q-16 16 -14 27zM196 85l4 97h42l-10 -99z" />
<glyph unicode="&#xf204;" d="M8 98l30 12l15 -38l-29 -13zM10 150l15 38l28 -12l-15 -37zM31 124q0 39 28 67.5t67 28.5q40 0 67.5 -28t27.5 -68q0 -39 -27.5 -66.5t-67.5 -27.5q-39 0 -67 27.5t-28 66.5zM48 124q0 -31 22.5 -53.5t54.5 -22.5t55.5 22.5t23.5 53.5q0 32 -23 55t-55 23t-55 -23 t-23 -55zM62 226l38 16l12 -29l-38 -17zM63 24l11 27l37 -15l-12 -28zM66 124q0 25 17.5 43t42.5 18t42.5 -17.5t17.5 -43.5q0 -24 -17.5 -41.5t-42.5 -17.5t-42.5 17t-17.5 42zM106 125q0 -9 6 -15t14 -6t14 6t6 14q0 9 -6 14.5t-14 5.5t-14 -5.5t-6 -13.5zM141 34l39 18 l10 -30l-38 -16zM141 213l11 27l38 -15l-12 -27zM200 72l14 38l28 -12l-15 -37zM200 176l28 13l16 -38l-29 -13z" />
<glyph unicode="&#xf205;" d="M11 125.5q0 46.5 33 80.5q34 33 81 33t81 -33q33 -34 33 -80.5t-33 -80.5q-34 -34 -81 -34t-81 34q-33 34 -33 80.5zM38 124.5q0 -35.5 26 -60.5q25 -26 60.5 -26t61.5 26q26 25 26 60.5t-26 61.5t-61.5 26t-60.5 -26q-26 -26 -26 -61.5zM112 126v62q0 5 4 9.5t10 4.5 q12 0 12 -14v-62q0 -14 -12 -14q-14 0 -14 14zM112 126q0 12 14 12h42q14 0 14 -12q0 -14 -14 -14h-42q-14 0 -14 14z" />
<glyph unicode="&#xf206;" d="M14 24v128h222v-60h-65v-68h-157zM14 170v12q0 10 7 17t17 7h174q10 0 17 -7t7 -17v-12h-222zM58 206v24q0 4 4 8t8 4q12 0 12 -12v-24h-24zM169 206v24q0 12 11 12q5 0 9 -3.5t4 -8.5v-24h-24zM188 24l48 52h-48v-52z" />
<glyph unicode="&#xf207;" d="M0 0l81 98l17 -17zM39 143q2 2 6 5.5t16 10t24.5 9t29 -2t31.5 -19.5q23 -27 23 -51t-13 -41l-12 -16q-31 16 -61 44q-12 13 -23 28.5t-16 23.5zM93 154l74 74l61 -61l-73 -75zM150 214q-6 10 0 16l16 16q8 8 16 0l64 -65q9 -7 0 -15l-16 -16q-7 -7 -16 0z" />
<glyph unicode="&#xf300;" d="M16 156q6 32 7 36q5 33 5 36q28 -4 32 -4h15.5h25.5h27h66q11 0 35 4q0 -20 1 -34q4 -26 4 -38q0 -1 -2 -2h-6h-2h-3q-3 15 -19 36q-16 19 -29 19h-4q-6 0 -9 -3q-4 -4 -4 -8v-138q0 -12 6 -18q4 -5 22 -7q1 0 2 -2v-4v-4l-2 -3q-5 0 -14 0.5t-14 0.5t-14.5 0.5 t-13.5 0.5t-13.5 -0.5t-14.5 -0.5t-14.5 -0.5t-14.5 -0.5q-1 0 -1 3l-2 4l2 4q0 2 1 2q20 4 23 7q5 4 5 18v138q0 5 -3 8t-10 3h-2q-13 0 -30 -17q-19 -20 -24 -38h-2h-4h-5z" />
<glyph unicode="&#xf301;" d="M28 176q9 26 17 51q24 -4 90 -4q59 0 87 4q-2 -17 -2 -51q0 -2 -5 -2q-4 0 -4 2q-1 20 -11 30q-9 8 -32 8h-8q-8 0 -10 -2q-5 -5 -6 -9l-34 -148q-2 -4 -2 -9q0 -7 6 -10q8 -4 20 -5q2 0 2 -3l-2 -4l-2 -1q-4 0 -11.5 0.5t-12.5 0.5h-20h-20q-6 0 -13 -0.5t-10 -0.5 q-1 1 -1 3q0 5 3 5q12 1 18 3q6 3 9 6q3 4 6 15l36 148v5q0 3 -2 4q-4 2 -8 2h-15q-16 0 -33 -10q-15 -12 -22 -28q-1 -2 -4 -2q-4 0 -4 2z" />
<glyph unicode="&#xf302;" d="M0 166q0 2 1.5 8.5t2.5 11.5q2 16 2 20q8 -2 18 -2h38h36q12 0 20 2q0 -3 0.5 -8.5t0.5 -9.5t0.5 -11t0.5 -11q1 -1 -1 -1q-1 -1 -2 -1h-3v1q-2 7 -12 20q-8 11 -15 11h-3q-4 0 -5 -2q-2 0 -2 -4v-78q0 -5 3 -8q5 -5 13 -5q1 0 1 -1v-2v-2l-1 -2h-16q-3 0 -8 0.5t-7 0.5 t-8 -0.5t-8 -0.5h-16q-1 1 -1 2l-1 2q1 1 1 2l1 1q6 0 13 5q3 3 3 8v78q0 4 -2 4q0 2 -5 2h-2q-6 0 -15 -10q-10 -9 -15 -21l-1 -1h-2l-2 1zM12 44v16h214v-16h-214zM147 92v18h103v-18h-103zM147 140v18h79v-18h-79zM147 190v17h103v-17h-103z" />
<glyph unicode="&#xf303;" d="M0 32q0 6 4 14q2 7 16 17q6 5 12 11l5 10q0 6 -3 8q-2 4 -8 4t-8 -5q0 -1 -1 -4.5t-1 -5.5h-15q0 10 3 16q6 11 22 11q12 0 20 -6q6 -6 6 -18q0 -10 -5 -15l-11 -9l-6 -4l-8 -6q-2 -2 -2 -5h32v-13h-52zM4 192v10q3 0 6 0.5t4 0.5q1 1 4 2t4 2q2 4 2 6v3h14v-76h-16v52 h-18zM84 37v19h139v-19h-139zM84 91v19h166v-19h-166zM84 144v20h139v-20h-139zM84 200v18h166v-18h-166z" />
<glyph unicode="&#xf304;" d="M5 90q0 10 6.5 17t16.5 7t17 -7t7 -17t-7 -17.5t-17 -7.5t-16.5 7t-6.5 18zM5 194q0 24 23 24q10 0 17 -7t7 -17t-7 -17t-17 -7t-16.5 7t-6.5 17zM77 32v19h141v-19h-141zM77 86v20h168v-20h-168zM77 140v20h141v-20h-141zM77 196v20h168v-20h-168z" />
<glyph unicode="&#xf305;" d="M12.5 60.5q-4.5 16.5 4.5 25.5l48 48q9 9 25 5t31 -19t19 -31t-4 -25l-49 -48q-8 -9 -24.5 -5t-30.5 19q-15 14 -19.5 30.5zM38 63.5q3 -9.5 10 -15.5q7 -7 16.5 -10t11.5 0l38 38q3 3 0 12t-10 16t-16 9.5t-12 -0.5l-38 -37q-3 -3 0 -12.5zM78 102l71 69q9 11 22 -1 q10 -14 2 -22l-71 -70q-10 -8 -22 2q-12 12 -2 22zM111 161q-4 16 5 24l48 49q9 9 25.5 4.5t30.5 -19.5q34 -35 14 -55l-48 -49q-9 -9 -25.5 -4.5t-30.5 19.5q-15 15 -19 31zM137.5 161.5q2.5 -9.5 8.5 -15.5q7 -7 16.5 -9.5t12.5 0.5l37 37q3 3 0.5 12t-8.5 16q-7 7 -17 10 t-13 0l-36 -38q-3 -3 -0.5 -12.5z" />
<glyph unicode="&#xf306;" d="M3.5 62.5q0.5 14.5 10.5 20.5l52 31q9 6 23 -1t23 -23t9 -31t-9 -21l-53 -31q-9 -6 -23 1t-23 23q-10 17 -9.5 31.5zM27.5 58.5q0.5 -9.5 4.5 -16.5t11.5 -11.5t10.5 -2.5l40 25q3 2 3 10.5t-4 15.5t-12 11.5t-11 2.5l-40 -24q-3 -1 -2.5 -10.5zM66 88l40 42l25 -24 l-42 -41q-10 -10 -22 1t-1 22zM126 148l40 41q10 9 22 -3q14 -10 2 -22l-42 -40zM136 184l30 52q5 9 20.5 10t31.5 -8t23 -22.5t2 -23.5l-31 -52q-6 -9 -21 -10t-31 8t-23 22.5t-1 23.5zM156 180q-2 -3 3 -10.5t12 -11.5t16.5 -4.5t10.5 2.5l23 41q2 3 -2.5 10.5t-11.5 11.5 t-16.5 4.5t-10.5 -3.5z" />
<glyph unicode="&#xf307;" d="M0 188l13 1l19 -170l-14 -1zM8 189l172 19v-14l-169 -18zM22 48q39 60 48 60q5 1 25 -16t37 -34l18 -18l-126 -14zM26 33l170 19l2 -14l-170 -20zM38 142q-1 9 5 16t15 8q20 3 24 -19q1 -9 -4.5 -16t-14.5 -8t-16 4.5t-9 14.5zM54 186l8 46h14l-7 -48zM55 30 q69 102 85 104q12 3 54 -34l6 -54zM70 218l1 14l170 -24l-3 -14zM174 208l14 1l20 -170l-14 -1zM202 40l2 14l14 -3l-2 -13zM212 38l24 170l14 -2l-25 -170z" />
<glyph unicode="&#xf308;" d="M18 150q0 -36 20 -62q21 -26 56 -46q4 0 6 2l5 5q1 1 3 5q2 2 2 3.5t-2 1.5q-13 7 -28 23q-14 13 -14 32q0 7 1 8q0 4 3 4l1 -1l1 -1q2 -1 4 -1q13 0 26 10q13 11 13 29t-13 32q-11 14 -34 14q-25 0 -38 -16q-12 -18 -12 -42zM136 150q0 -36 20 -62q18 -24 56 -46 q4 0 6 2q2 1 6 5q1 1 1 2q1 2 1 3q2 2 2 3.5t-2 1.5q-16 8 -28 23q-14 13 -14 32v8q0 4 4 4q2 -2 4 -2q1 -1 4 -1q15 0 25 10q12 11 12 29t-13 32t-34 14q-24 0 -37 -16q-13 -17 -13 -42z" />
<glyph unicode="&#xf309;" d="M0 123l68 57l14 -16l-48 -40l48 -41l-14 -15zM80 45l69 160h23l-68 -160h-24zM168 83l50 40l-50 41l16 16l66 -57l-66 -55z" />
<glyph unicode="&#xf30a;" d="M38 22v206q0 9 9 9h85l80 -83v-132q0 -8 -8 -8h-157q-9 0 -9 8zM62 44q0 -7 6 -7h114q7 0 7 7v110h-57v60h-64q-6 0 -6 -8v-162z" />
<glyph unicode="&#xf30b;" d="M24 22v206q0 9 8 9h86v-23h-64q-7 0 -7 -8v-162q0 -7 7 -7h114q6 0 6 7v110h24v-132q0 -8 -9 -8h-157q-8 0 -8 8zM64 57l58 27l-30 32zM100 126l82 82l34 -36l-81 -82zM190 216l21 21l35 -35l-21 -22z" />
</font>
</defs>
</svg>
